<mxfile host="app.diagrams.net" modified="2021-01-25T09:51:08.191Z" agent="5.0 (X11)" etag="Pd4ZWLopCJnylcK5CT1A" version="14.2.7" type="github">
  <diagram name="Page-1" id="822b0af5-4adb-64df-f703-e8dfc1f81529">
    <mxGraphModel dx="2031" dy="1054" grid="1" gridSize="10" guides="1" tooltips="1" connect="1" arrows="1" fold="1" page="1" pageScale="1" pageWidth="1100" pageHeight="850" background="#ffffff" math="0" shadow="0">
      <root>
        <mxCell id="0" />
        <mxCell id="1" parent="0" />
        <mxCell id="7d933b09d9755ecc-19" value="" style="ellipse;whiteSpace=wrap;html=1;rounded=0;shadow=0;comic=0;strokeWidth=1;fontFamily=Verdana;" parent="1" vertex="1">
          <mxGeometry x="310" y="20" width="420.5" height="261" as="geometry" />
        </mxCell>
        <mxCell id="Y7fo8upXCPEQHd1Dj6rG-2" value="" style="verticalLabelPosition=bottom;aspect=fixed;html=1;verticalAlign=top;strokeColor=none;align=center;outlineConnect=0;shape=mxgraph.citrix.laptop_1;" vertex="1" parent="1">
          <mxGeometry x="330.5" y="55" width="130" height="110" as="geometry" />
        </mxCell>
        <mxCell id="Y7fo8upXCPEQHd1Dj6rG-3" value="" style="verticalLabelPosition=bottom;aspect=fixed;html=1;verticalAlign=top;strokeColor=none;align=center;outlineConnect=0;shape=mxgraph.citrix.license_server;" vertex="1" parent="1">
          <mxGeometry x="310" y="593.5" width="65" height="85" as="geometry" />
        </mxCell>
        <mxCell id="Y7fo8upXCPEQHd1Dj6rG-4" value="" style="verticalLabelPosition=bottom;aspect=fixed;html=1;verticalAlign=top;strokeColor=none;align=center;outlineConnect=0;shape=mxgraph.citrix.role_security;fillColor=#CCCCCC;gradientColor=#000000;gradientDirection=south;" vertex="1" parent="1">
          <mxGeometry x="339" y="640" width="36" height="36" as="geometry" />
        </mxCell>
        <mxCell id="Y7fo8upXCPEQHd1Dj6rG-5" value="" style="verticalLabelPosition=bottom;aspect=fixed;html=1;verticalAlign=top;strokeColor=none;align=center;outlineConnect=0;shape=mxgraph.citrix.directory_server;" vertex="1" parent="1">
          <mxGeometry x="665.5" y="593.5" width="65" height="88.5" as="geometry" />
        </mxCell>
        <mxCell id="Y7fo8upXCPEQHd1Dj6rG-6" value="" style="verticalLabelPosition=bottom;aspect=fixed;html=1;verticalAlign=top;strokeColor=none;align=center;outlineConnect=0;shape=mxgraph.citrix.desktop_web;" vertex="1" parent="1">
          <mxGeometry x="590.5" y="75" width="76.5" height="90" as="geometry" />
        </mxCell>
        <mxCell id="7d933b09d9755ecc-6" value="Users" style="verticalLabelPosition=bottom;aspect=fixed;html=1;verticalAlign=top;strokeColor=none;shape=mxgraph.citrix.users;rounded=0;shadow=0;comic=0;fontFamily=Verdana;" parent="1" vertex="1">
          <mxGeometry x="490.5" y="51" width="60" height="51.16" as="geometry" />
        </mxCell>
        <mxCell id="Y7fo8upXCPEQHd1Dj6rG-10" value="EDATA, ITEX, NEURONE, ..." style="edgeStyle=none;rounded=0;html=1;entryX=0.82;entryY=0.054;entryPerimeter=0;labelBackgroundColor=none;startArrow=none;startFill=0;endArrow=block;endFill=1;strokeWidth=1;fontFamily=Verdana;fontSize=12;entryDx=0;entryDy=0;" edge="1" parent="1" source="Y7fo8upXCPEQHd1Dj6rG-6" target="7d933b09d9755ecc-9">
          <mxGeometry x="-0.6667" y="-3" relative="1" as="geometry">
            <mxPoint as="offset" />
            <mxPoint x="617.638718406517" y="133" as="sourcePoint" />
            <mxPoint x="540.2399999999998" y="446.46000000000004" as="targetPoint" />
          </mxGeometry>
        </mxCell>
        <mxCell id="Y7fo8upXCPEQHd1Dj6rG-9" value="ARCANE FRONTEND" style="edgeStyle=none;rounded=0;html=1;labelBackgroundColor=none;startArrow=none;startFill=0;endArrow=block;endFill=1;strokeWidth=1;fontFamily=Verdana;fontSize=12;entryX=0.325;entryY=-0.013;entryDx=0;entryDy=0;entryPerimeter=0;" edge="1" parent="1" target="7d933b09d9755ecc-9">
          <mxGeometry x="-0.685" y="-22" relative="1" as="geometry">
            <mxPoint x="-1" as="offset" />
            <mxPoint x="421.25889417629696" y="158" as="sourcePoint" />
            <mxPoint x="540.5" y="441" as="targetPoint" />
          </mxGeometry>
        </mxCell>
        <mxCell id="7d933b09d9755ecc-9" value="" style="verticalLabelPosition=bottom;aspect=fixed;html=1;verticalAlign=top;strokeColor=none;shape=mxgraph.citrix.tower_server;rounded=0;shadow=0;comic=0;fontFamily=Verdana;" parent="1" vertex="1">
          <mxGeometry x="485.5" y="391" width="65" height="85" as="geometry" />
        </mxCell>
        <mxCell id="Y7fo8upXCPEQHd1Dj6rG-11" value="&lt;div&gt;ARCANE BACKEND&lt;/div&gt;" style="edgeStyle=none;rounded=0;html=1;labelBackgroundColor=none;startArrow=none;startFill=0;endArrow=block;endFill=1;strokeWidth=1;fontFamily=Verdana;fontSize=12;exitX=0.274;exitY=0.966;exitDx=0;exitDy=0;exitPerimeter=0;" edge="1" parent="1" source="7d933b09d9755ecc-9" target="Y7fo8upXCPEQHd1Dj6rG-3">
          <mxGeometry x="-1" y="59" relative="1" as="geometry">
            <mxPoint x="15" y="-25" as="offset" />
            <mxPoint x="1103" y="144.0794500266977" as="sourcePoint" />
            <mxPoint x="599.8739999999998" y="156.91999999999985" as="targetPoint" />
          </mxGeometry>
        </mxCell>
        <mxCell id="Y7fo8upXCPEQHd1Dj6rG-12" value="KEYCLOACK" style="edgeStyle=none;rounded=0;html=1;labelBackgroundColor=none;startArrow=none;startFill=0;endArrow=block;endFill=1;strokeWidth=1;fontFamily=Verdana;fontSize=12;entryX=1.077;entryY=0.547;entryDx=0;entryDy=0;entryPerimeter=0;" edge="1" parent="1" source="Y7fo8upXCPEQHd1Dj6rG-5" target="Y7fo8upXCPEQHd1Dj6rG-3">
          <mxGeometry x="1" y="71" relative="1" as="geometry">
            <mxPoint x="-38" y="-11" as="offset" />
            <mxPoint x="660" y="460" as="sourcePoint" />
            <mxPoint x="609.8739999999998" y="171.91999999999985" as="targetPoint" />
          </mxGeometry>
        </mxCell>
        <mxCell id="Y7fo8upXCPEQHd1Dj6rG-13" value="&lt;div style=&quot;font-size: 14px&quot;&gt;&lt;font style=&quot;font-size: 14px&quot;&gt;SYNCHRONIATION &lt;br&gt;&lt;/font&gt;&lt;/div&gt;&lt;div style=&quot;font-size: 14px&quot;&gt;&lt;font style=&quot;font-size: 14px&quot;&gt;DES&lt;/font&gt;&lt;/div&gt;&lt;div style=&quot;font-size: 14px&quot;&gt;&lt;font style=&quot;font-size: 14px&quot;&gt;UTILISATEUR&lt;/font&gt;S&lt;/div&gt;" style="text;html=1;resizable=0;autosize=1;align=center;verticalAlign=middle;points=[];fillColor=none;strokeColor=none;rounded=0;" vertex="1" parent="1">
          <mxGeometry x="459.5" y="608" width="140" height="50" as="geometry" />
        </mxCell>
        <mxCell id="Y7fo8upXCPEQHd1Dj6rG-15" value="ACTIVE DIRECTORY" style="text;html=1;resizable=0;autosize=1;align=center;verticalAlign=middle;points=[];fillColor=none;strokeColor=none;rounded=0;" vertex="1" parent="1">
          <mxGeometry x="640" y="690" width="130" height="20" as="geometry" />
        </mxCell>
      </root>
    </mxGraphModel>
  </diagram>
</mxfile>
